<?xml version="1.0" encoding="utf-8"?>
<svg version="1.1" id="Layer_1" xmlns="http://www.w3.org/2000/svg" xmlns:xlink="http://www.w3.org/1999/xlink" x="0px" y="0px"
	 viewBox="0 0 54 54" style="enable-background:new 0 0 54 54;" xml:space="preserve">
<style type="text/css">
	.st1{fill-rule:evenodd;clip-rule:evenodd;fill:#168DC7;}
	.st2{fill:#168DC7;}
</style>
<g>
	<path class="st1" d="M9.1,21.6l5.2-3.1c5.4,8.6,19.6,7.4,27.1-0.8c1.1,1.1,3.5,3.9,3.5,3.9S41.7,25,38.3,27
		c-3.6,2.2-8.3,2.7-8.3,2.7l-0.2,4.2c0,0,11.4,1.1,11.1,15.6h-5c-0.2-10.1-4.7-11.2-9.8-10.3c-7.6,1.3-9,6.1-10.1,10.3h-5.4
		C11.8,36.1,24.5,34,24.5,34l0-3.8C24.5,30.1,14.7,29.4,9.1,21.6"/>
	<path class="st2" d="M30.2,7.1c-4.8,0.2-10,3.4-11.3,8.4c-1.3,5,2.4,7.2,8.4,6.3c4.6-1.2,9.7-3.7,10.3-9.1
		C37.6,8.3,34.9,6.9,30.2,7.1 M27.7,17.3c-2.3,0.3-3.7-0.5-3.2-2.4c0.5-1.9,2.5-3.1,4.3-3.2c1.8-0.1,2.8,0.4,2.8,2.1
		C31.4,15.9,29.5,16.9,27.7,17.3"/>
</g>
</svg>
