<svg id="Layer_1" data-name="Layer 1" xmlns="http://www.w3.org/2000/svg" xmlns:xlink="http://www.w3.org/1999/xlink" viewBox="0 0 142 45.8"><defs><style>.cls-1{fill:url(#New_Gradient_Swatch_2);}.cls-2{fill:url(#New_Gradient_Swatch_1);}.cls-3{fill:url(#New_Gradient_Swatch_2-2);}.cls-4{fill:url(#New_Gradient_Swatch_2-3);}.cls-5{isolation:isolate;}.cls-6{fill:#fff;}</style><linearGradient id="New_Gradient_Swatch_2" x1="88.87" y1="-4.99" x2="88.87" y2="41.05" gradientUnits="userSpaceOnUse"><stop offset="0" stop-color="#ef7d00"/><stop offset="1" stop-color="#e84e0f"/></linearGradient><linearGradient id="New_Gradient_Swatch_1" x1="17.77" y1="6.33" x2="17.77" y2="35.25" gradientUnits="userSpaceOnUse"><stop offset="0" stop-color="#52b153"/><stop offset="1" stop-color="#00964f"/></linearGradient><linearGradient id="New_Gradient_Swatch_2-2" x1="50.52" y1="-4.99" x2="50.52" y2="41.05" xlink:href="#New_Gradient_Swatch_2"/><linearGradient id="New_Gradient_Swatch_2-3" x1="125.24" y1="-4.99" x2="125.24" y2="41.05" xlink:href="#New_Gradient_Swatch_2"/></defs><title>logo_NJOY_color</title><path class="cls-1" d="M99.9,4,91,16c-.2.4-.6.4-1,.2a.8.8,0,0,1-.1-1L98.7,3.3A23.1,23.1,0,0,0,88.9,1a22,22,0,1,0,11,3Z"/><path class="cls-2" d="M1,7.6C1,4,2.7,2.5,6.5,2.5a4.7,4.7,0,0,1,4.3,2.3L26,29.4h.2V6.7c0-2.8,1.5-4.2,4.1-4.2s4.2,1.4,4.2,4.2v30c0,3.5-1.4,5.4-5.1,5.4s-3.7-.6-4.8-2.3L9.5,15.9H9.4v22c0,2.8-1.6,4.2-4.2,4.2S1,40.7,1,37.9Z"/><path class="cls-3" d="M63.3,29.5c0,8-4.5,12.8-13.1,12.8-10.5,0-12.4-6.9-12.4-10.7s1.5-5.3,4.1-5.3,4,2.4,4,5,1.1,4.3,4.2,4.3,4.5-2.1,4.5-6.2V6.9a4.4,4.4,0,1,1,8.7,0Z"/><path class="cls-4" d="M120.9,26.5,110.2,8.8a4.8,4.8,0,0,1-.7-2.3c0-3,2.7-4,4.4-4s3,.9,3.9,2.6L125.4,19l7.5-13.9c1-1.9,2-2.6,3.8-2.6a4.1,4.1,0,0,1,4.3,4,4.8,4.8,0,0,1-.7,2.3L129.6,26.5V37.8a4.4,4.4,0,0,1-8.7,0Z"/><g class="cls-5"><path class="cls-6" d="M72,19.8a1.1,1.1,0,0,1,1.2-1.2h3.4c2.4,0,3.1,1.4,3.1,2.5a2.2,2.2,0,0,1-1.6,2.2h0c1.1.2,1.3.9,1.3,1.8a15.4,15.4,0,0,0,.2,1.9.8.8,0,0,1-.9.8c-1.1,0-1.2-1.1-1.2-1.5s-.3-2.2-1.4-2.2H74v2.7a1,1,0,0,1-2,0Zm2,2.8h2.1c.8,0,1.5-.2,1.5-1.2s-.6-1.2-1.5-1.2H74Z"/><path class="cls-6" d="M87.1,25.9a7.1,7.1,0,0,0,.2,1.2.8.8,0,0,1-.8.7,1,1,0,0,1-1.1-1.1,3.2,3.2,0,0,1-2.5,1.1,1.9,1.9,0,0,1-2.1-1.9c0-1.5,1.2-1.9,2.6-2.1h1.1c.4,0,.8-.1.8-.7s-.6-.7-1.2-.7-1.4,1-2.1,1a.7.7,0,0,1-.8-.7c0-.7,1-1.7,2.9-1.7s3,.6,3,1.9Zm-1.8-1.3-.8.2h-.7c-.8.2-1.2.4-1.2.9s.4.8,1.1.8a1.6,1.6,0,0,0,1.6-1.3Z"/><path class="cls-6" d="M94.9,26.9a.8.8,0,0,1-.9.9c-.5,0-.8-.3-.8-.9v-.3h0a2,2,0,0,1-1.9,1.2c-1.6,0-2.9-1.1-2.9-3.5s.9-3.4,2.8-3.4a2.1,2.1,0,0,1,1.8,1h0V19.4a.8.8,0,0,1,.9-.9c.6,0,1,.3,1,.9Zm-3.2-.5c1,0,1.4-1,1.4-2s-.3-2.1-1.4-2-1.5,1.1-1.5,2S90.7,26.3,91.7,26.4Z"/><path class="cls-6" d="M97.3,18.4a.9.9,0,0,1,1,1,.9.9,0,0,1-1,.9.9.9,0,0,1-.9-.9A.9.9,0,0,1,97.3,18.4Zm-.9,3.4a.9.9,0,0,1,1.8,0v5.1a.9.9,0,0,1-1.8,0Z"/><path class="cls-6" d="M102.9,20.9a3.2,3.2,0,0,1,3.4,3.5,3.4,3.4,0,1,1-6.8,0A3.2,3.2,0,0,1,102.9,20.9Zm0,5.5c1.1,0,1.5-.9,1.5-2s-.4-2.1-1.5-2.1-1.6.9-1.6,2.1S101.8,26.4,102.9,26.4Z"/></g></svg>