<?xml version="1.0" encoding="utf-8"?>
<!-- Generator: Adobe Illustrator 24.0.0, SVG Export Plug-In . SVG Version: 6.00 Build 0)  -->
<svg version="1.1" id="Layer_1" xmlns="http://www.w3.org/2000/svg" xmlns:xlink="http://www.w3.org/1999/xlink" x="0px" y="0px"
	 viewBox="0 0 54 54" style="enable-background:new 0 0 54 54;" xml:space="preserve">
<style type="text/css">
	.st1{clip-path:url(#SVGID_2_);fill:#A8123E;}
	.st2{clip-path:url(#SVGID_2_);fill:#BA5B80;}
</style>
<g>
	<g>
		<defs>
			<rect id="SVGID_1_" x="3.8" y="16.3" width="46.4" height="25.1"/>
		</defs>
		<clipPath id="SVGID_2_">
			<use xlink:href="#SVGID_1_"  style="overflow:visible;"/>
		</clipPath>
		<path class="st1" d="M38.6,26.7c0-2.4-1.9-4.3-4.3-4.3c-2.4,0-4.3,1.9-4.3,4.3c0,2.4,1.9,4.1,4.3,4.1l3.5,0c0.4,0,0.8-0.4,0.8-0.8
			V26.7 M36.6,29.6h-2.3c-1.6,0-2.9-1.2-2.9-2.8c0-1.6,1.3-3,2.9-3c1.6,0,2.9,1.4,2.9,3v2.2C37.2,29.4,37,29.6,36.6,29.6"/>
		<path class="st2" d="M44.7,19.7c-3.1,0-5.5,2.5-5.5,5.5v4.4c0,0.6,0.5,1.1,1.1,1.1h4.4c3.1,0,5.5-2.5,5.5-5.6
			c0-1.5-0.6-2.9-1.6-3.9C47.6,20.3,46.2,19.7,44.7,19.7 M39.5,29.7v-4.4c0-2.9,2.3-5.2,5.2-5.2c1.4,0,2.7,0.5,3.7,1.5
			c1,1,1.5,2.3,1.5,3.7c0,2.9-2.3,5.3-5.2,5.3h-4.4C39.9,30.5,39.5,30.2,39.5,29.7"/>
		<path class="st2" d="M40.4,31.5c-0.7,0-1.2,0.5-1.2,1.2v3.8c0,2.7,2.2,4.9,5,4.9c1.3,0,2.6-0.5,3.5-1.4c0.9-0.9,1.4-2.2,1.4-3.5
			c0-2.7-2.2-4.9-4.9-4.9H40.4 M39.8,32.7c0-0.3,0.2-0.5,0.5-0.5h3.8c2.4,0,4.3,1.9,4.3,4.3c0,1.1-0.4,2.2-1.3,3
			c-0.8,0.8-1.9,1.3-3,1.3c-2.4,0-4.3-1.9-4.3-4.3V32.7z"/>
		<path class="st2" d="M35.1,31.5c-1.9,0-3.5,1.6-3.5,3.5c0,1.9,1.6,3.5,3.5,3.5c1.9,0,3.5-1.6,3.5-3.5v-2.5c0-0.5-0.4-1-1-1H35.1
			 M32.4,35c0-1.5,1.2-2.7,2.7-2.7h2.5c0.1,0,0.2,0.1,0.2,0.2V35c0,1.5-1.2,2.7-2.7,2.7C33.6,37.6,32.4,36.4,32.4,35"/>
		<path class="st1" d="M16.9,22.5c-2.4,0-4.3,1.9-4.3,4.3c0,2.4,1.9,4.3,4.3,4.3h0c2.4,0,4.3-1.9,4.3-4.3
			C21.2,24.4,19.3,22.5,16.9,22.5 M19.8,26.7c0,1.6-1.3,3-2.9,3c-1.6,0-2.9-1.4-2.9-3v0c0-1.1,0.7-2.2,1.6-2.7
			c0.4-0.2,0.8-0.3,1.3-0.3c0.4,0,0.8,0.1,1.2,0.3C19.1,24.5,19.8,25.6,19.8,26.7L19.8,26.7"/>
		<path class="st1" d="M11.7,26.8c0-2.4-1.9-4.3-4.3-4.3H4.6c-0.4,0-0.8,0.4-0.8,0.8v6.9c0,0.4,0.3,0.7,0.7,0.7
			c0.4,0,0.7-0.3,0.7-0.7v-5.8c0-0.4,0.2-0.6,0.5-0.6h1.6c1.5,0,2.9,1.5,2.9,2.9v3.5c0,0.4,0.3,0.7,0.7,0.7c0.4,0,0.7-0.3,0.7-0.7
			V26.8L11.7,26.8"/>
		<path class="st1" d="M26,30.9c0.5,0,1-0.2,1.3-0.9l2.5-6.6c0.1-0.5,0-0.8-0.3-0.9c-0.4-0.1-0.8,0.1-0.9,0.6L26.3,29
			c-0.2,0.4-0.3,0.5-0.6,0.5c-0.3,0-0.5-0.2-0.6-0.5L22.7,23c-0.2-0.5-0.6-0.7-0.9-0.6c-0.3,0.1-0.4,0.5-0.3,0.9l2.5,6.6
			c0.3,0.7,0.8,0.9,1.3,0.9H26"/>
		<path class="st2" d="M6.3,18.4c0,0.2-0.1,0.3-0.3,0.3H5.6c-0.6,0-1.2,0.6-1.2,1.2v1.4c0,0.2-0.1,0.3-0.2,0.3v0l0,0l0,0
			c-0.2,0-0.3-0.1-0.3-0.3v-1.4c0-1,0.8-1.8,1.8-1.8H6C6.1,18.1,6.3,18.2,6.3,18.4 M9.8,19.8v1.5c0,0.2-0.1,0.3-0.3,0.3H8
			c-1,0-1.8-0.8-1.8-1.8c0-1,0.8-1.8,1.8-1.8C9,18.1,9.8,18.9,9.8,19.8 M9.2,19.8c0-0.7-0.5-1.2-1.2-1.2c-0.7,0-1.2,0.6-1.2,1.2
			c0,0.7,0.5,1.2,1.2,1.2h0.9c0.2,0,0.3-0.1,0.3-0.2V19.8z M18.8,19.8c0,1-0.8,1.8-1.8,1.8c-1,0-1.8-0.8-1.8-1.8
			c0-1,0.8-1.8,1.8-1.8C18,18.1,18.8,18.9,18.8,19.8 M18.2,19.8c0-0.5-0.3-0.9-0.7-1.1c-0.2-0.1-0.3-0.1-0.5-0.1
			c-0.2,0-0.4,0-0.5,0.1c-0.4,0.2-0.7,0.6-0.7,1.1v0c0,0.7,0.5,1.2,1.2,1.2C17.7,21.1,18.2,20.5,18.2,19.8L18.2,19.8z M13.7,16.6
			v3.2c0,1-0.8,1.8-1.8,1.8c-1,0-1.8-0.8-1.8-1.8c0-1,0.8-1.8,1.8-1.8h1.2v-1.5c0-0.2,0.1-0.3,0.3-0.3l0,0l0,0v0
			C13.6,16.3,13.7,16.4,13.7,16.6 M13.1,18.9c0-0.2-0.1-0.3-0.3-0.3h-0.9c-0.7,0-1.2,0.6-1.2,1.2c0,0.7,0.5,1.2,1.2,1.2
			c0.7,0,1.2-0.6,1.2-1.2V18.9z M14.6,18.1L14.6,18.1L14.6,18.1L14.6,18.1c-0.2,0-0.3,0.1-0.3,0.3v1.4v1.4c0,0.2,0.1,0.3,0.3,0.3
			l0,0l0,0l0,0c0.1,0,0.2-0.1,0.2-0.3v-0.5v-1.9v-0.5C14.8,18.2,14.7,18.1,14.6,18.1 M14.6,16.3L14.6,16.3L14.6,16.3L14.6,16.3
			c-0.2,0-0.3,0.1-0.3,0.3v0.1c0,0.2,0.1,0.3,0.3,0.3l0,0l0,0l0,0c0.1,0,0.2-0.1,0.2-0.3v-0.1C14.8,16.4,14.7,16.3,14.6,16.3"/>
		<path class="st2" d="M8.7,31.9L8.7,31.9L8.7,31.9L8.7,31.9L8.7,31.9H8.6H8.2C8.1,31.9,8,32,8,32.1v0v0v0c0,0.1,0.1,0.2,0.2,0.2
			h0.2v0.9v1.1c0,0.1,0.1,0.2,0.2,0.2h0h0l0,0c0.1,0,0.2-0.1,0.2-0.2V34v-1.5v-0.4C8.9,32,8.8,31.9,8.7,31.9"/>
		<path class="st2" d="M4.5,31.9L4.5,31.9L4.5,31.9L4.5,31.9L4.5,31.9L4.5,31.9H4.1c-0.1,0-0.2,0.1-0.2,0.2l0,0l0,0l0,0
			c0,0.1,0.1,0.2,0.2,0.2h0.2v0.9v1.1c0,0.1,0.1,0.2,0.2,0.2h0h0l0,0c0.1,0,0.2-0.1,0.2-0.2V34v-1.5v-0.4C4.7,32,4.6,31.9,4.5,31.9"
			/>
		<polyline class="st2" points="9.8,34.4 9.8,34.3 9.8,34.4 9.8,34.4 		"/>
		<path class="st2" d="M6.5,31.9c-0.8,0-1.4,0.6-1.4,1.4c0,0.8,0.6,1.4,1.4,1.4c0.8,0,1.4-0.6,1.4-1.4C7.9,32.5,7.3,31.9,6.5,31.9
			 M7.4,33.3c0,0.5-0.4,1-0.9,1c-0.5,0-0.9-0.5-0.9-1v0c0-0.4,0.2-0.7,0.5-0.9c0.1-0.1,0.3-0.1,0.4-0.1c0.1,0,0.3,0,0.4,0.1
			C7.2,32.5,7.4,32.9,7.4,33.3L7.4,33.3"/>
		<path class="st2" d="M11.3,31.9H10c-0.1,0-0.2,0.1-0.2,0.2c0,0.1,0.1,0.2,0.2,0.2h1l-0.8,2c0,0.1,0.1,0.2,0.2,0.3l0,0l0,0v0
			c0.1,0,0.2-0.1,0.2-0.2l0.9-2.2C11.6,32,11.5,31.9,11.3,31.9"/>
		<path class="st2" d="M14.1,32.3h0.3c0.1,0,0.2-0.1,0.2-0.2c0-0.1-0.1-0.2-0.2-0.2h-0.3c-0.8,0-1.4,0.6-1.4,1.4v1.1
			c0,0.1,0.1,0.2,0.2,0.2h0h0l0,0c0.1,0,0.2-0.1,0.2-0.2v-0.9h1.2c0.1,0,0.2-0.1,0.2-0.2l0,0l0,0h0c0-0.1-0.1-0.2-0.2-0.2h-1.1
			C13.4,32.6,13.7,32.3,14.1,32.3"/>
		<path class="st2" d="M17.4,31.9h-1.7h-0.3c-0.1,0-0.3,0.1-0.3,0.2v2.2c0,0.1,0.1,0.2,0.2,0.2c0.1,0,0.2-0.1,0.2-0.2v-1.9
			c0-0.1,0.1-0.2,0.2-0.2h0.1h0.8v2.1c0,0.1,0.1,0.2,0.2,0.2s0.2-0.1,0.2-0.2v-2.1h0.3c0.5,0,0.9,0.5,0.9,0.9v1.1
			c0,0.1,0.1,0.2,0.2,0.2c0.1,0,0.2-0.1,0.2-0.2v-1.1l0,0C18.8,32.5,18.2,31.9,17.4,31.9"/>
		<path class="st2" d="M9.6,34.1L9.6,34.1L9.6,34.1L9.6,34.1c-0.2,0-0.3,0.1-0.3,0.2c0,0.1,0.1,0.2,0.2,0.2h0h0l0,0
			c0.1,0,0.2-0.1,0.2-0.2C9.7,34.2,9.7,34.1,9.6,34.1"/>
	</g>
</g>
</svg>
