<?xml version="1.0" encoding="utf-8"?>
<svg version="1.1" id="Layer_1" xmlns="http://www.w3.org/2000/svg" xmlns:xlink="http://www.w3.org/1999/xlink" x="0px" y="0px"
	 viewBox="0 0 54 54" style="enable-background:new 0 0 54 54;" xml:space="preserve">
<style type="text/css">
	.st0{fill:#FFFFFF;}
	.st1{fill-rule:evenodd;clip-rule:evenodd;}
	.st2{fill:#EA2028;}
	.st3{clip-path:url(#SVGID_2_);fill:#AF1F28;}
	.st4{clip-path:url(#SVGID_2_);fill:#131819;}
</style>
<g>
	<g>
		<polygon class="st1" points="44.5,44.2 10.6,44.2 10.6,51.1 44.5,51.1 44.5,44.2 44.5,44.2 		"/>
		<polygon class="st0" points="15.6,46.2 14,46.2 13.8,47.1 15.3,47.1 15.1,48.1 13.6,48.1 13.4,49.1 15.1,49.1 14.9,50.1 
			11.9,50.1 12.9,45.2 15.8,45.2 15.6,46.2 15.6,46.2 		"/>
		<path class="st0" d="M20.4,50.1h-1.4l-0.2-1.8c0-0.2,0-0.5-0.1-0.7c0-0.2,0-0.5-0.1-0.7c0,0.3-0.1,0.6-0.1,0.9
			c0,0.3-0.1,0.6-0.2,0.9l-0.3,1.5H17l1.1-4.9h1.4l0.2,1.9c0,0.2,0,0.5,0.1,0.7c0,0.2,0,0.5,0,0.7c0-0.4,0.1-0.7,0.1-0.9
			c0-0.2,0.1-0.4,0.1-0.6l0.4-1.9h1.2L20.4,50.1L20.4,50.1L20.4,50.1z"/>
		<polygon class="st0" points="26.4,46.2 24.8,46.2 24.6,47.1 26.1,47.1 25.9,48.1 24.4,48.1 24.2,49.1 25.9,49.1 25.6,50.1 
			22.7,50.1 23.7,45.2 26.6,45.2 26.4,46.2 26.4,46.2 		"/>
		<path class="st0" d="M30.6,46.5c0-0.2,0-0.3-0.1-0.3c-0.1-0.1-0.2-0.1-0.4-0.1h-0.1l-0.2,1.2h0.1c0.1,0,0.2,0,0.3,0
			c0.1,0,0.1,0,0.2-0.1c0.1-0.1,0.2-0.1,0.2-0.3C30.5,46.8,30.6,46.6,30.6,46.5L30.6,46.5L30.6,46.5z M31.9,46.3
			c0,0.4-0.1,0.8-0.3,1c-0.2,0.2-0.5,0.4-0.9,0.4c0.1,0,0.2,0.1,0.3,0.1c0.1,0,0.2,0.1,0.2,0.1c0.1,0.1,0.1,0.1,0.1,0.2
			c0,0.1,0,0.2,0,0.3c0,0.1,0,0.3,0,0.4c0,0.1,0,0.3-0.1,0.4c0,0.1,0,0.3,0,0.3c0,0.1,0,0.1,0,0.2c0,0.1,0,0.2,0.1,0.2v0h-1.3
			c0-0.1,0-0.1,0-0.1c0,0,0-0.1,0-0.1c0-0.1,0-0.1,0-0.2c0-0.1,0-0.2,0.1-0.3c0-0.2,0.1-0.3,0.1-0.5c0-0.1,0-0.2,0-0.3
			c0-0.2,0-0.3-0.1-0.3c-0.1-0.1-0.2-0.1-0.3-0.1h-0.2l-0.4,2h-1.3l1.1-4.9h1.5c0.2,0,0.4,0,0.6,0c0.2,0,0.4,0.1,0.5,0.1
			c0.1,0.1,0.3,0.2,0.4,0.3C31.8,45.8,31.9,46,31.9,46.3L31.9,46.3L31.9,46.3z"/>
		<path class="st0" d="M37.3,46.3c0,0,0,0.1,0,0.1c0,0,0,0.1,0,0.1c0,0,0,0.1,0,0.1c0,0,0,0.1,0,0.1h-1.2c0-0.1,0-0.2,0-0.3
			c0-0.1,0-0.1,0-0.2c0-0.2-0.1-0.3-0.3-0.3c-0.1,0-0.2,0-0.2,0.1c-0.1,0-0.1,0.1-0.2,0.2c0,0.1-0.1,0.2-0.1,0.4
			c0,0.1-0.1,0.3-0.1,0.5c0,0.1,0,0.2-0.1,0.2c0,0.1,0,0.1,0,0.2c0,0.1,0,0.2-0.1,0.2c0,0.1,0,0.2-0.1,0.3c-0.1,0.3-0.1,0.4-0.1,0.6
			c0,0.1,0,0.2,0,0.3c0,0.2,0.1,0.4,0.3,0.4c0.1,0,0.2,0,0.2-0.1c0.1-0.1,0.1-0.1,0.2-0.2c0-0.1,0.1-0.2,0.1-0.3
			c0-0.1,0-0.2,0.1-0.3c0-0.1,0-0.1,0-0.2c0,0,0-0.1,0-0.2h-0.4l0.2-0.8h1.7l-0.6,2.6h-0.9v-0.2c0,0,0-0.1,0-0.1c0,0,0-0.1,0-0.1
			c-0.1,0.2-0.3,0.3-0.4,0.4c-0.2,0.1-0.4,0.1-0.6,0.1c-0.8,0-1.2-0.4-1.2-1.2c0-0.2,0-0.4,0-0.5c0-0.2,0.1-0.4,0.1-0.5
			c0.1-0.3,0.1-0.5,0.2-0.7c0-0.2,0.1-0.4,0.2-0.6c0.1-0.3,0.2-0.5,0.3-0.7c0.1-0.2,0.2-0.4,0.3-0.5c0.1-0.1,0.3-0.2,0.5-0.3
			c0.2-0.1,0.4-0.1,0.7-0.1c0.2,0,0.4,0,0.6,0.1c0.2,0,0.3,0.1,0.5,0.2c0.1,0.1,0.2,0.2,0.3,0.4C37.3,45.8,37.3,46,37.3,46.3
			L37.3,46.3L37.3,46.3z"/>
		<path class="st0" d="M41.4,48.2L41,50.1h-1.3l0.4-1.9l-0.7-3h1.4l0.1,0.9c0,0.2,0,0.3,0,0.5c0,0.2,0,0.3,0,0.5
			c0.1-0.2,0.1-0.3,0.2-0.5c0.1-0.2,0.1-0.3,0.2-0.5l0.5-0.9h1.4L41.4,48.2L41.4,48.2L41.4,48.2z"/>
		<path class="st2" d="M41.1,12.9c1.9,0,3.4-1.5,3.4-3.4c0-1.9-1.5-3.4-3.4-3.4c-1.9,0-3.4,1.5-3.4,3.4
			C37.7,11.3,39.2,12.9,41.1,12.9L41.1,12.9z M30.5,24.1c-0.7,0.2-2.6,1-2.6,1v-3.1c0,0,1.3-0.5,2-0.7c0.7-0.2,1.2,0.4,1.3,1.1
			C31.2,22.9,31.3,23.7,30.5,24.1L30.5,24.1z M36.5,15.7v3.3l2.2-0.8c0,0,0,8.6,0,9c-0.2,2.6-3,1.8-3.9,1.1
			c-0.3-0.2-2.3-1.6-2.3-1.6c2-0.7,5.1-3.3,3.6-6.7c-1.9-3.5-5.3-2.4-5.3-2.4l-9.3,3.3v3.2l1.3-0.5v4.5l-6-5.6l-6.2,2.2l0,3.2
			l1.9-0.7v9.2l-1.8,0.7v3.4l7-2.5v-7.6l3.9,3.5l9.9-2.6c0,0,1.3,1,2.3,1.8c1.7,1.2,3.7,1.5,6,0.9c2.5-0.7,4.7-2.9,4.7-6.1
			c0-1.2,0-14.7,0-14.7L36.5,15.7L36.5,15.7z"/>
		<g>
			<defs>
				<rect id="SVGID_1_" x="10.6" y="6.1" width="33.9" height="45"/>
			</defs>
			<clipPath id="SVGID_2_">
				<use xlink:href="#SVGID_1_"  style="overflow:visible;"/>
			</clipPath>
			<polygon class="st3" points="15.7,38.5 13.5,36.3 13.7,35.4 17.7,35.3 17.7,37.8 15.7,38.5 			"/>
			<path class="st4" d="M44.4,27.4c-0.2,2.6-1.8,4.7-5.3,4.9c-1.6,0.1-2.6-0.4-3.4-0.9c-1.5-0.7-3.9-2.9-5.4-3.5
				c-1.1-0.4-2.6-0.6-4.1-0.3c-1.5,0.3-2.4,0.9-3,1.4c-0.6,0.5-1.6,1.4-1.8,1.7c-0.2,0.3-0.9,1-1,1.1c-0.1,0-0.2-0.2-0.3-0.3
				c-0.1-0.1-0.2-0.3-0.3-0.4c-0.1,0-0.4,0.5-0.5,0.8c0,0.3,0.1,0.7,0.1,0.8c0,0.1-0.1,0.2-0.2,0.2c0,0-0.3-0.4-0.4-0.4
				c0,0-0.2,0.2-0.2,0.4c0,0.2,0,0.6,0,0.6c-0.4,0.3-1,0.6-1.7,0.8c-0.4,0.1-2.6,0.3-2.6,0.4c-0.1,0-1,0.9-1,0.9l0,0.8l0.2-0.2
				l0.3,0.6l0.2-0.4c0,0,0.3,0.4,0.5,0.6c0.1-0.3,0.4-1,1-1.2c0.5-0.2,3.2-0.3,3.3-0.3c0,0.1-0.1,0.5-0.1,0.5c0,0,0.6,0.6,0.6,0.7
				c0,0,0.3-0.1,0.3-0.1c0,0,0.1-0.1,0.1-0.1c0,0,0.2,0,0.3-0.1C20,36.3,20,36.1,20,36c0.1-0.1,0.5-0.2,0.7-0.1
				c0.2,0.1,0.4,0.4,0.2,0.7c-0.1,0.2-0.4,0.1-0.5,0.1c0,0,0.2,0.2,0.2,0.2c0,0,0,0.1,0,0.1s0.1,0.1,0.1,0.1c0,0,0.9-0.5,1-0.5
				c0.1,0,0.2-0.2,0.4-0.4c0,0-0.3-0.2-0.3-0.6c0-0.4,0.3-0.6,0.7-0.5c0.4,0,0.5,0.4,0.4,0.8c-0.1,0.3-1.7,2.2-3.2,2.9
				c-1,0.6-1.8,0.5-1.9,0.5c-0.1,0-0.9,0.8-0.9,0.8l0,0.7l0.2-0.1l0.3,0.7l0.2-0.3l0.5,0.6l0.1-0.5l0.7,0.5c0,0,0-0.3,0.1-0.5
				c0.1-0.1,1.1-1,1.2-1.1c0.1-0.1,1.6-0.8,2.8-1.7c1.5-1,2.9-2,2.9-2.3c-0.2-0.1-0.9-0.8-0.9-1.5c0-0.7,0.9-1.4,1.8-1.9
				c1-0.4,2.3-0.3,3.1,0.4c0.6,0.4,3.1,2.1,6.4,2c3.5-0.2,5.6-1.3,6.8-3.5C44.6,29.4,44.5,27.8,44.4,27.4L44.4,27.4z"/>
		</g>
		<polygon class="st0" points="19.6,34.8 19.8,33.7 20.1,33.9 19.7,34.7 19.6,34.8 		"/>
		<path d="M11.4,20.5l0.7-0.2c0.3-0.1,0.4-0.2,0.4-0.5c0-0.2-0.2-0.2-0.4-0.2l-0.7,0.2V20.5L11.4,20.5z M10.6,19.6l1.6-0.6
			c0.6-0.2,1.1-0.2,1.1,0.4c0,0.3-0.2,0.6-0.5,0.9v0c0.3,0,0.4,0.3,0.5,0.5c0,0.1,0,0.5,0.1,0.6l-0.8,0.3c-0.1-0.1-0.1-0.3-0.1-0.4
			c0-0.3-0.1-0.6-0.5-0.4l-0.6,0.2v1l-0.8,0.3V19.6L10.6,19.6z"/>
		<path d="M17.6,18.9l0.7-0.3L18,17.8l0,0L17.6,18.9L17.6,18.9z M17.5,17.2l0.9-0.3l1.2,2.4l-0.9,0.3l-0.2-0.4l-1.1,0.4l-0.2,0.6
			l-0.9,0.3L17.5,17.2L17.5,17.2z"/>
		<path d="M23.5,17.3l0.4-0.1c0.6-0.2,0.9-0.5,0.9-1.1c0-0.5-0.3-0.7-0.9-0.5l-0.4,0.1V17.3L23.5,17.3z M22.7,15.4l1.4-0.5
			c1-0.3,1.6,0,1.6,0.9c0,0.9-0.6,1.6-1.6,2l-1.4,0.5V15.4L22.7,15.4z"/>
		<polygon points="28.9,13.3 29.8,13 29.8,15.8 28.9,16.1 28.9,13.3 		"/>
		<path d="M34.6,13.6c0.5-0.2,0.7-0.7,0.7-1.1c0-0.4-0.2-0.8-0.7-0.6c-0.5,0.2-0.7,0.7-0.7,1.1C33.9,13.4,34.1,13.7,34.6,13.6
			L34.6,13.6z M34.6,11.3c1-0.3,1.6,0.1,1.6,0.9c0,0.8-0.6,1.7-1.6,2c-1,0.3-1.6-0.1-1.6-0.9C33.1,12.4,33.6,11.6,34.6,11.3
			L34.6,11.3z"/>
	</g>
</g>
</svg>
