<?xml version="1.0" encoding="UTF-8" standalone="no"?>
<!-- Created with Inkscape (http://www.inkscape.org/) -->
<svg
   xmlns:svg="http://www.w3.org/2000/svg"
   xmlns="http://www.w3.org/2000/svg"
   version="1.0"
   width="620.24164"
   height="254.64728"
   id="svg2">
  <defs
     id="defs4" />
  <g
     transform="translate(-6.1448774,-5.6565285)"
     id="layer1">
    <g
       id="g2653">
      <g
         transform="matrix(17.524415,0,0,-17.524415,6.1448774,5.6565285)"
         id="g3874"
         style="fill:#000000">
        <path
           d="M 0,0 L 35.393,0 L 35.393,-10.596 L 5.932,-10.596 L 0,-14.531 L 2.081,-10.596 L 0,-10.596 L 0,0"
           id="path3876"
           style="fill:#000000;fill-opacity:1;fill-rule:nonzero;stroke:none" />
      </g>
      <g
         transform="matrix(17.524415,0,0,-17.524415,89.596142,134.81147)"
         id="g3878"
         style="fill:#ffffff">
        <path
           d="M 0,0 L 1.0121,0 L 1.0121,3.5122 L 0,3.5122 L 0,0 z M 2.067,4.436 L -1.0495,4.436 L -1.0495,3.69454 L 2.067,3.69454 L 2.067,4.436 z"
           id="path3880"
           style="fill:#ffffff;fill-opacity:1;fill-rule:evenodd;stroke:none" />
      </g>
      <g
         transform="matrix(17.524415,0,0,-17.524415,171.50526,87.898608)"
         id="g3882"
         style="fill:#ffffff">
        <path
           d="M 0,0 L -0.832,0 L -0.832,-0.741 L 0,-0.741 L 0,-2.677 L 1.012,-2.677 L 1.012,1.759 L 0,1.759 L 0,0 z M -1.012,1.759 L -2.0239,1.759 L -2.0239,-2.6768 L -1.012,-2.6768 L -1.012,1.759 z"
           id="path3884"
           style="fill:#ffffff;fill-opacity:1;fill-rule:evenodd;stroke:none" />
      </g>
      <g
         transform="matrix(17.524415,0,0,-17.524415,201.66478,57.073162)"
         id="g3886"
         style="fill:#ffffff">
        <path
           d="M 1.018,0 L -0.0001,0 L -0.0001,-4.4358 L 1.018,-4.4358 L 1.018,0 z M 2.483,-3.669 L 1.1669,-3.669 L 1.1669,-4.43536 L 2.483,-4.43536 L 2.483,-3.669 z M 1.167,-0.741 L 2.4831,-0.741 L 2.4831,0.00046 L 1.167,0.00046 L 1.167,-0.741 z M 1.167,-2.494 L 2.4086,-2.494 L 2.4086,-1.75251 L 1.167,-1.75251 L 1.167,-2.494 z"
           id="path3888"
           style="fill:#ffffff;fill-opacity:1;fill-rule:evenodd;stroke:none" />
      </g>
      <g
         transform="matrix(17.524415,0,0,-17.524415,304.37537,57.073162)"
         id="g3890"
         style="fill:#ffffff">
        <path
           d="M 0,0 L -1.006,0 L 0.205,-4.436 L 1.037,-4.436 L 0,0 z M 1.434,0 L 0.851,-2.821 L 1.242,-4.436 L 2.44,0 L 1.434,0"
           id="path3892"
           style="fill:#ffffff;fill-opacity:1;fill-rule:evenodd;stroke:none" />
      </g>
      <g
         transform="matrix(17.524415,0,0,-17.524415,390.80579,76.542787)"
         id="g3894"
         style="fill:#ffffff">
        <path
           d="M 0,0 L 0,-2.22 C 0,-2.515 -0.149,-2.678 -0.447,-2.697 L -0.447,-3.413 C 0.54,-3.388 1.037,-2.948 1.037,-2.082 L 1.037,-0.056 C 1.037,0.778 0.54,1.199 -0.447,1.206 L -0.447,0.476 C -0.149,0.458 0,0.295 0,0 z M -2.08,-0.038 L -2.08,-2.063 C -2.08,-2.935 -1.589,-3.382 -0.621,-3.413 L -0.621,-2.697 C -0.906,-2.671 -1.049,-2.515 -1.049,-2.22 L -1.049,0 C -1.049,0.288 -0.906,0.445 -0.621,0.476 L -0.621,1.199 C -1.595,1.168 -2.08,0.753 -2.08,-0.038"
           id="path3896"
           style="fill:#ffffff;fill-opacity:1;fill-rule:evenodd;stroke:none" />
      </g>
      <path
         d="M 420.89521,134.81147 L 439.05751,134.81147 L 439.05751,57.076667 L 420.89521,57.076667 L 420.89521,134.81147 z"
         id="path3898"
         style="fill:#ffffff;fill-opacity:1;fill-rule:nonzero;stroke:none" />
      <g
         transform="matrix(17.524415,0,0,-17.524415,451.07225,76.647932)"
         id="g3900"
         style="fill:#ffffff">
        <path
           d="M 0,0 L 0,-2.107 C 0,-2.935 0.472,-3.369 1.428,-3.407 L 1.428,-2.69 C 1.161,-2.653 1.031,-2.515 1.031,-2.264 L 1.031,0.038 C 1.031,0.295 1.161,0.445 1.428,0.477 L 1.428,1.206 C 0.472,1.161 0,0.759 0,0 z M 1.633,-2.69 L 1.633,-3.407 C 2.62,-3.382 3.117,-2.954 3.117,-2.126 L 3.117,-1.655 L 2.08,-1.655 L 2.08,-2.264 C 2.08,-2.527 1.931,-2.671 1.633,-2.69 z M 1.633,1.212 L 1.633,0.483 C 1.931,0.464 2.08,0.313 2.08,0.038 L 2.08,-0.433 L 3.117,-0.433 L 3.117,-0.019 C 3.117,0.791 2.633,1.206 1.633,1.212"
           id="path3902"
           style="fill:#ffffff;fill-opacity:1;fill-rule:evenodd;stroke:none" />
      </g>
      <g
         transform="matrix(17.524415,0,0,-17.524415,517.22692,57.073162)"
         id="g3904"
         style="fill:#ffffff">
        <path
           d="M 1.018,0 L -0.0003,0 L -0.0003,-4.4358 L 1.018,-4.4358 L 1.018,0 z M 2.483,-3.669 L 1.1667,-3.669 L 1.1667,-4.43536 L 2.483,-4.43536 L 2.483,-3.669 z M 1.167,-0.741 L 2.4833,-0.741 L 2.4833,0.00046 L 1.167,0.00046 L 1.167,-0.741 z M 1.167,-2.494 L 2.4091,-2.494 L 2.4091,-1.75251 L 1.167,-1.75251 L 1.167,-2.494 z"
           id="path3906"
           style="fill:#ffffff;fill-opacity:1;fill-rule:evenodd;stroke:none" />
      </g>
    </g>
  </g>
</svg>
