<?xml version="1.0" standalone="no"?>
<!DOCTYPE svg PUBLIC "-//W3C//DTD SVG 20010904//EN"
 "http://www.w3.org/TR/2001/REC-SVG-20010904/DTD/svg10.dtd">
<svg version="1.0" xmlns="http://www.w3.org/2000/svg"
 width="700.000000pt" height="700.000000pt" viewBox="0 0 700.000000 700.000000"
 preserveAspectRatio="xMidYMid meet">
<metadata>
Created by potrace 1.14, written by Peter Selinger 2001-2017
</metadata>
<g transform="translate(0.000000,700.000000) scale(0.100000,-0.100000)"
fill="#000000" stroke="none">
<path d="M4535 6395 c-68 -37 -105 -97 -105 -170 0 -162 199 -244 313 -130 43
43 61 93 55 149 -7 58 -26 94 -71 130 -31 25 -49 31 -100 34 -44 2 -71 -2 -92
-13z"/>
<path d="M1525 6251 c-33 -15 -76 -35 -95 -43 -19 -9 -61 -28 -93 -43 -315
-144 -520 -235 -527 -235 -5 0 -7 -12 -5 -27 3 -16 14 -89 25 -163 11 -74 21
-144 24 -155 2 -11 7 -40 10 -65 3 -25 8 -54 10 -65 2 -11 9 -54 16 -94 12
-74 12 -75 -12 -95 -60 -49 -65 -117 -14 -170 29 -31 40 -36 80 -36 36 0 52 6
78 29 29 25 33 36 33 78 0 26 -4 66 -8 88 -5 22 -10 54 -12 72 -2 17 -8 57
-14 90 -6 32 -13 72 -15 88 -3 17 -10 61 -17 98 -6 37 -10 70 -8 71 10 9 542
247 545 244 2 -2 5 -19 7 -38 6 -43 36 -237 41 -267 3 -12 -1 -24 -10 -27 -21
-8 -54 -67 -54 -96 0 -30 32 -85 58 -99 81 -43 177 17 174 109 0 16 -5 37 -10
47 -6 10 -19 77 -31 148 -12 72 -23 139 -25 150 -5 26 -15 89 -22 140 -3 22
-12 76 -19 120 -17 96 -23 134 -24 158 -1 23 -15 21 -86 -12z"/>
<path d="M5642 6169 c-49 -15 -106 -78 -132 -145 -17 -46 -22 -82 -23 -159 -1
-124 5 -316 11 -332 4 -12 42 -14 312 -16 80 0 132 4 170 16 156 47 218 205
123 317 -47 56 -109 74 -197 55 l-39 -8 9 29 c4 16 8 53 8 81 0 44 -6 59 -31
90 -16 21 -44 46 -60 55 -37 22 -108 30 -151 17z"/>
<path d="M3225 6051 c-62 -38 -79 -77 -65 -153 l7 -38 -49 6 c-60 8 -99 -7
-132 -51 -35 -46 -39 -104 -10 -153 48 -80 101 -96 308 -94 87 1 161 4 165 6
12 8 13 325 0 364 -35 111 -141 165 -224 113z"/>
<path d="M1410 4890 c-11 -11 -20 -30 -21 -42 0 -13 0 -112 -1 -220 l0 -198
-399 0 -399 0 -1 -37 c0 -21 0 -884 -1 -1918 l0 -1880 2911 -3 2911 -2 0 1365
c0 751 0 1586 0 1855 0 270 0 519 0 555 l0 65 -400 0 -400 0 1 188 c1 259 1
250 -21 272 -20 20 -33 20 -2090 20 -2057 0 -2070 0 -2090 -20z m4065 -288 l1
-172 -1976 0 -1975 0 1 173 c1 94 2 172 3 172 0 0 889 0 1973 0 l1973 -1 0
-172z"/>
</g>
</svg>
